<svg xmlns="http://www.w3.org/2000/svg" viewBox="0 0 501 287">
  <!-- кружочек вокруг логотипа -->
  <circle cx="247.5" cy="148" r="140" fill="#FFFFFF" stroke="#F" stroke-width="4" stroke-dasharray="0"/>

  <!-- тёмный контур дома / тени -->
  <path d="M264 96c0 0 2.2 1.325 6.664 4.016 2.321 1.41 4.641 2.822 6.961 4.234 1.23.748 2.46 1.496 3.727 2.267 3.55 2.16 7.099 4.321 10.648 6.483 1.677 1.021 3.354 2.042 5.082 3.094 7.785 4.748 15.546 9.534 23.293 14.344 8.452 5.24 16.957 10.382 25.492 15.485 7.331 4.396 14.627 8.848 21.926 13.297 6.835 4.164 13.677 8.317 20.52 12.469 31.702 19.239 31.702 19.239 30.687 24.312-1.888 5.048-3.96 10.01-6 15-4.463-1.116-7.452-2.92-11.375-5.312-1.286-.78-2.573-1.56-3.898-2.364-3.282-2.047-6.51-4.179-9.727-6.324 0 19.47 0 38.94 0 59 2.64.33 5.28.66 8 1 5.551 1.07 11.089 2.171 16.625 3.312 1.468.296 2.937.592 4.45.897 9.122 1.874 17.987 4.183 26.925 6.791 2.665.348 5.331.684 8 1 3.02.939 6.022 1.937 9 3 1.98.66 3.96 1.32 6 1.98-5.105 1.276-8.47.304-13.625-.75-9.769-1.938-19.535-3.717-29.375-5.25-1.485-.235-2.97-.47-4.5-.711-126.685-18.642-261.718-15.59-387.5 7.711 2.029-4.058 9.338-4.314 13.312-5.312 2.452-.619 4.904-1.238 7.43-1.876 2.395-.598 4.79-1.196 7.258-1.812 1.92-.495 3.841-.99 5.82-1.5 8.702-2.232 17.3-4.092 26.18-5.5 2.97-.99 2.97-.99 6-2 3.63-.33 7.26-.66 11-1 0-19.14 0-38.28 0-58-7.425 4.455-7.425 4.455-15 9-2.99 1.684-5.985 3.36-9 5-1.227-2.909-2.431-5.828-3.625-8.75-.673-1.624-1.346-3.248-2.039-4.922-1.336-4.328-1.336-4.328.664-8.328 2.851-1.895 5.784-3.667 8.75-5.375 7.517-4.401 14.921-8.917 22.25-13.625 8.759-5.608 17.612-11.022 26.547-16.344 5.855-3.492 11.651-7.077 17.453-10.656 3.604-2.188 7.208-4.376 10.812-6.562 8.02-4.875 15.994-9.814 23.938-14.812 10.877-6.826 21.901-13.362 32.977-19.856 6.82-4.098 13.408-8.452 19.918-13.024 7.856-4.088 14.692 2.187 22.047 6.254z" fill="#3F2C1B"/>

  <!-- зелёная крыша -->
  <path d="M261.312 48.188c7.54 4.809 15.1 9.58 22.688 14.312 11.879 7.418 23.721 14.893 35.555 22.383 8.799 5.564 17.614 11.102 26.445 16.617 11.915 7.44 23.795 14.934 35.66 22.453 10.003 6.331 20.05 12.588 30.122 18.808 6.656 4.13 13.274 8.318 19.89 12.512 3.842 2.42 7.703 4.801 11.579 7.164 4.39 2.72 8.611 5.482 12.75 8.562-12.824 19.235-12.824 19.235-19 18-3.106-1.715-6.163-3.521-9.188-5.375-1.798-1.097-3.596-2.194-5.449-3.324-2.655-1.634-2.655-1.634-5.363-3.301-2.834-1.73-5.667-3.459-8.5-5.188-1.45-.888-2.9-1.776-3.395-2.891-6.423-3.927-12.857-7.838-19.293-11.746-1.221-.742-2.443-1.484-3.701-2.248-6.006-3.645-12.017-7.277-18.049-10.877-5.788-3.461-11.521-7.005-17.25-10.562-6.841-4.248-13.709-8.439-20.625-12.563-9.445-5.643-18.767-11.47-28.086-17.32-7.861-4.902-15.786-9.696-23.719-14.48-6.433-3.973-12.683-8.186-18.886-12.508-6.813-3.54-11.425.13-17.121 3.996-8.003 5.319-16.153 10.305-24.407 15.223-12.857 7.672-25.575 15.57-38.3 23.457-10.543 6.525-21.107 13.014-31.668 19.508-4.334 2.667-8.667 5.334-13 8-2.148 1.322-4.296 2.643-6.508 4.005-4.309 2.652-8.616 5.305-12.922 7.96-12.861 7.927-24.949 15.807-37.873 23.63-6.003 3.617-6.003 3.617-11.898 7.406-7.803-2.05-12.321-10.862-17-17.094 0-5.156 4.757-6.094 8.937-8.5 6.527-3.819 12.986-7.671 19.313-11.812 8.793-5.747 17.703-11.296 26.617-16.852 7.658-4.79 15.276-9.64 22.891-14.496 8.065-5.138 16.154-10.238 24.242-15.34 3.167-2 6.334-4 9.5-6 1.574-.994 3.148-1.988 4.77-3.012 3.102-1.96 6.204-3.921 9.305-5.883 8.729-5.521 17.475-11.013 26.238-16.48 16.109-10.06 32.131-20.25 48.047-30.613 7.366-4.717 11.634-.205 18.453 4.176z" fill="#32452C"/>

  <!-- светлая часть стены / окно -->
  <path d="M265 118.75c1.246.766 2.491 1.531 3.775 2.32 2.538 1.56 5.073 3.125 7.607 4.693 3.255 2.013 6.518 4.013 9.782 6.011 24.836 15.242 24.836 15.242 24.836 66.226-40.92 0-81.84 0-124 0 0-51.696 0-51.696 23-65.25 9.507-5.646 18.912-11.415 28.235-17.36 11.506-7.304 15.867-3.403 26.765 3.36z" fill="#EEE"/>

  <!-- основной цвет стен -->
  <path d="M264 96c2.199 1.325 4.398 2.65 6.664 4.016 2.321 1.41 4.641 2.822 6.961 4.234 1.23.748 2.46 1.496 3.727 2.267 3.55 2.16 7.099 4.321 10.648 6.483 1.677 1.021 3.354 2.042 5.082 3.094 7.785 4.748 15.546 9.534 23.293 14.344 8.452 5.24 16.957 10.382 25.492 15.485 7.331 4.396 14.627 8.848 21.926 13.297 6.835 4.164 13.677 8.317 20.52 12.469 31.702 19.239 31.702 19.239 30.687 24.312-.97 2.678-1.966 5.347-3 8-9.183-4.85-18.095-9.995-26.938-15.438-7.01-4.306-14.027-8.572-21.183-12.632-6.42-3.668-12.72-7.472-19.004-11.368-9.33-5.77-18.682-11.5-28.062-17.188-1.168-.708-2.336-1.417-3.54-2.147-5.493-3.332-10.988-6.661-16.484-9.99-10.57-6.414-21.079-12.911-31.52-19.535-14.773-11.338-14.773-11.338-30.519-7.266-1.88 1.204-3.76 2.408-5.695 3.648-1.998 1.292-3.996 2.584-6.055 3.914-4.038 2.527-8.08 5.048-12.125 7.563-7.289 4.556-14.559 9.139-21.812 13.75-7.171 4.54-14.441 8.87-21.774 13.141-6.149 3.652-12.165 7.503-18.199 11.34-7.447 4.693-14.974 9.252-22.5 13.817-5.038 3.055-10.066 6.126-15.09 9.203-7.807 4.774-15.646 9.492-23.5 14.188-2.939 1.763-2.939 1.763-5.938 3.562-1.34.805-2.681 1.61-4.062 2.438-4.25-10.5-4.25-10.5-2-14 2.851-1.895 5.784-3.667 8.75-5.375 7.517-4.401 14.921-8.917 22.25-13.625 8.759-5.608 17.612-11.022 26.547-16.344 5.855-3.492 11.651-7.077 17.453-10.656 3.604-2.188 7.208-4.376 10.812-6.562 8.02-4.875 15.994-9.814 23.938-14.812 10.877-6.826 21.901-13.362 32.977-19.856 6.82-4.098 13.408-8.452 19.918-13.024 7.856-4.088 14.692 2.187 22.047 6.254z" fill="#98682F"/>

  <!-- тени на стенах -->
  <path d="M264 96c2.199 1.325 4.398 2.65 6.664 4.016 2.321 1.41 4.641 2.822 6.961 4.234 1.23.748 2.46 1.496 3.727 2.267 3.55 2.16 7.099 4.321 10.648 6.483 1.677 1.021 3.354 2.042 5.082 3.094 7.785 4.748 15.546 9.534 23.293 14.344 8.452 5.24 16.957 10.382 25.492 15.485 7.331 4.396 14.627 8.848 21.926 13.297 6.835 4.164 13.677 8.317 20.52 12.469 31.702 19.239 31.702 19.239 30.687 24.312-.66.66-1.32 1.32-2 1.98 0-.66 0-1.32 0-2-1.65-.66-3.3-1.32-5-2-3.176-2.036-6.348-4.077-9.508-6.137-7.442-4.743-15.042-9.221-22.617-13.746-7.188-4.297-14.346-8.642-21.5-12.992-16.695-10.15-16.695-10.15-33.492-20.129-10.504-6.17-20.887-12.473-31.157-19.023-4.948-3.112-9.952-6.113-14.977-9.098-9.863-5.883-19.555-11.98-28.75-18.875-5.269 2.108-9.392 4.747-14.125 7.875-9.89 6.489-19.855 12.84-29.875 19.125-1.852 1.163-3.705 2.326-5.613 3.524-19.629 12.295-39.354 24.432-59.137 36.477-2.202 1.34-4.403 2.681-6.672 4.062-6.81 4.076-13.682 8.012-20.578 11.938-2.548 1.51-5.092 3.028-7.625 4.562-4.641 2.804-9.299 5.545-13.999 8.25-5.48 3.082-5.48 3.082-10.376 7.188.99 3.465.99 3.465 2 7-.99.495-.99.495-2 1-4.25-10.5-4.25-10.5-2-14 2.851-1.895 5.784-3.667 8.75-5.375 7.517-4.401 14.921-8.917 22.25-13.625 8.759-5.608 17.612-11.022 26.547-16.344 5.855-3.492 11.651-7.077 17.453-10.656 3.604-2.188 7.208-4.376 10.812-6.562 8.02-4.875 15.994-9.814 23.938-14.812 10.877-6.826 21.901-13.362 32.977-19.856 6.82-4.098 13.408-8.452 19.918-13.024 7.856-4.088 14.692 2.187 22.047 6.254z" fill="#593B1B"/>

  <!-- дверь -->
  <path d="M329 161c6.007 2.002 10.262 4.519 15.562 7.938 4.787 3.075 9.559 6.135 14.438 9.062-2.833 5.666-7.271 8.834-12 13-2.017 1.983-4.026 3.974-6 6 11.717 1.528 17.175-5.175 25-13 5.821 1.455 5.797 1.986 7 8 .236 5.794.423 11.579.562 17.375.043 1.656.086 3.312.13 5.018.303 12.537.427 25.066.309 37.607-7.97-.194-11.898-.49-16.75-7-1.91-1.184-2.82-2.367-3.758-3.586-.822-1.127-1.645-2.254-2.492-3.414-1.196-1.526-2.393-3.053-3.625-4.625-1.114-1.444-2.228-2.889-3.375-4.375-4.769-6.795-4.769-6.795-11-12 0-.66 0-1.32 0-2 10.56 0 21.12 0 32 0 .33-1.65.66-3.3 1-5-12.54 0-25.08 0-38 0 0-16.17 0-32.34 0-49z" fill="#846A4D"/>

  <!-- верхняя часть двери / наличник -->
  <path d="M169 161c.495 8.415.495 8.415 1 17 .66-4.29 1.32-8.58 2-13 .33 0 .66 0 1 0 1.739 27.03 2.257 53.917 2 81-8.76 1.225-17.148 2.243-26 2 2.056-5.14 4.231-7.835 7.875-11.937 3.784-4.272 6.938-8.282 10.125-13.063.66 0 1.32 0 2 0-.33-.66-.66-1.32-1-2 0-2.97 0-5.94 0-9-11.88 0-23.76 0-36 0 0-8.91 0-17.82 0-27 8 6 8 6 11.375 9.375 4.73 3.425 7.92 3.094 13.625 2.625-4.76-4.827-9.496-9.564-14.625-14-3-3-3-3-3-5 2.556-1.64 5.173-3.185 7.812-4.688 5.298-3.047 10.476-6.138 15.625-9.437 4.563-2.875 4.563-2.875 6.563-2.875z" fill="#855F2D"/>

  <!-- декоративные элементы / рамы окон -->
  <path d="M186 148c.33 0 .66 0 1 0 0 16.5 0 33 0 50 40.92 0 81.84 0 124 0 0-16.5 0-33 0-50 .33 0 .66 0 1 0 .495 2.475.495 2.475 1 5 .99 0 1.98 0 3 0 1.211 9.628 1.223 19.226 1.316 28.914.021 1.806.042 3.612.064 5.473.065 5.746.124 11.492.183 17.238.043 3.905.087 7.81.131 11.715.107 9.553.209 19.107.307 28.66-6 0-6 0-8-5-3.605-3.844-7.24-7.565-11-11.25-1.024-1.018-2.047-2.037-3.102-3.086-4.526-4.886-4.526-4.886-9.898-8.664 0-.66 0-1.32 0-2 8.25 0 16.5 0 25 0 0-1.65 0-3.3 0-5-40.92 0-81.84 0-124 0 0-.33 0-.66 0-1 10.395-.495 10.395-.495 21-1-2.537-.144-5.074-.289-7.688-.438-4.595-.262-8.787-.658-13.312-1.562 2.519-7.558 44.494-3.05 53-3 8.605.104 17.209.256 25.812.438 2.838.059 2.838.059 5.733.119 13.16.302 26.306.828 39.456 1.444 0-1.98 0-3.96 0-6-41.25 0-82.5 0-125 0 0-16.83 0-33.66 0-51z" fill="#AF8649"/>

  <!-- светлые блики на окнах -->
  <path d="M242 215c0 9.24 0 18.48 0 28-15.51.33-31.02.66-47 1 27.662-32.273 27.662-32.273 47-29z" fill="#EAE9E8"/>

  <!-- отсветы на стенах -->
  <path d="M256 216c16.61-1.625 22.811 1.07 33.688 13.438 1.202 1.279 2.404 2.558 3.642 3.876 8.67 9.302 8.67 9.302 8.67 10.686-10.304.054-20.577-.152-30.875-.5-1.463-.048-2.926-.095-4.434-.145-3.564-.116-7.127-.235-10.691-.355 0-8.91 0-17.82 0-27z" fill="#ECECEC"/>

  <!-- тёмные детали окон -->
  <path d="M186 215c11.88 0 23.76 0 36 0-3.274 6.548-8.956 11.158-14.125 16.25-1.136 1.127-2.271 2.253-3.441 3.414-2.807 2.783-5.62 5.56-8.434 8.336.33.66.66 1.32 1 2-3.96 0-7.92 0-12 0-.33-9.9-.66-19.8-1-30z" fill="#684D2B"/>

  <!-- светлые блики на двери -->
  <path d="M329 161c6.007 2.002 10.262 4.519 15.562 7.938 4.787 3.075 9.559 6.135 14.438 9.062-2.834 5.668-7.269 8.826-12 13-1.134 1.34-2.269 2.681-3.438 4.062-3.562 2.938-3.562 2.938-14.562 2.938 0-12.21 0-24.42 0-37z" fill="#E9E9E8"/>

  <!-- светлые блики на наличнике -->
  <path d="M168 161c0 12.21 0 24.42 0 37-10.133 0-10.338-.338-17-7-2.163-1.942-4.33-3.879-6.5-5.812-5.5-5.188-5.5-5.188-5.5-7.188 2.556-1.64 5.173-3.185 7.812-4.688 5.361-3.086 15.422-12.312 21.188-12.312z" fill="#ECECEB"/>

  <!-- светлые блики на фундаменте -->
  <path d="M334 215c10.56 0 21.12 0 32 0 0 11.88 0 23.76 0 36-6.475-1.619-8.975-6.862-13-12-1.32-1.65-2.64-3.3-4-5-1.32-1.65-2.64-3.3-4-5-4.772-6.787-4.772-6.787-11-11 0-.66 0-1.32 0-2z" fill="#E9E8E8"/>

  <!-- коричневые детали / труба -->
  <path d="M315 152c10.255 4.102 8.501 9.446 8.625 19.563.11 10.502.11 10.502.899 20.965 1.335 12.53.393 25.395-.024 37.973-.048 1.502-.095 3.004-.145 4.551-.116 3.65-.235 7.3-.355 10.949-1.98-.33-3.96-.66-6-1-1.078-8.858-1.201-17.683-1.281-26.594-.018-1.582-.037-3.164-.056-4.795-.078-6.738-.146-13.477-.215-20.216-.052-4.933-.109-9.867-.167-14.8-.013-1.514-.027-3.028-.04-4.588-.087-7.392-.347-14.665-1.24-22.007z" fill="#7B541D"/>

  <!-- деревянные элементы -->
  <path d="M173 187c1.943 12.912 2.239 25.456 2.125 38.5-.009 1.979-.018 3.957-.027 5.996-.024 4.835-.056 9.669-.098 14.504-8.76 1.225-17.148 2.243-26 2 2.056-5.14 4.231-7.835 7.875-11.937 3.784-4.272 6.938-8.282 10.125-13.063.66 0 1.32 0 2 0-.33-.66-.66-1.32-1-2 0-2.97 0-5.94 0-9-11.88 0-23.76 0-36 0 0-8.91 0-17.82 0-27 8 6 8 6 11.375 9.375 4.73 3.425 7.92 3.094 13.625 2.625-4.76-4.827-9.496-9.564-14.625-14-3-3-3-3-3-5 2.556-1.64 5.173-3.185 7.812-4.688 5.298-3.047 10.476-6.138 15.625-9.437 4.563-2.875 4.563-2.875 6.563-2.875z" fill="#B1823C"/>

  <!-- основание дома / фундамент -->
  <path d="M132 216c9.9 0 19.8 0 30 0-3.894 5.192-7.697 10.073-11.938 14.938-5.616 6.502-10.907 13.189-16.062 20.062-.66 0-1.32 0-2 0 0-11.55 0-23.1 0-35z" fill="#ECECEC"/>

  <!-- тёмные детали фундамента -->
  <path d="M199.405 199.886c3.694 0 3.694 0 7.462 0 2.713.005 5.425.01 8.137.016 2.756.002 5.513.003 8.269.005 7.271.004 14.543.014 21.814.025 7.413.01 14.826.015 22.24.02 14.557.01 29.115.028 43.673.049 0 1.65 0 3.3 0 5-15.114.063-30.204-.12-45.312-.5-20.06-.473-40.104-.576-60.17-.463-3.006.013-3.006.013-6.073.025-2.668.018-2.668.018-5.39.035-4.055-.097-4.055-.097-6.055-1.097-.298 2.596-.298 2.596 4 4-1.98 0-3.96 0-6 0 1.602-9.608 4.064-7.123 13.404-7.123z" fill="#7A4E15"/>

  <!-- верх трубы -->
  <path d="M372 187c1.48 7.4 1.382 14.852 1.563 22.375.042 1.656.085 3.312.128 5.018.303 12.537.427 25.066.309 37.607-6 0-6 0-8-1-.702-66.234-.702-66.234 6-64z" fill="#A87935"/>

  <!-- тёмные детали крыши -->
  <path d="M132 215c5.063-.027 10.125-.047 15.188-.062 2.154-.013 2.154-.013 4.353-.026 5.634-.013 10.919-.02 16.459 1 .495 3.465.495 3.465 1 7-.66 0-1.32 0-2 0-.66 1.32-1.32 2.64-2 4-2.656 3.342-5.324 6.674-8 10-2.684 3.654-5.356 7.317-8 11 1.65 0 3.3 0 5 0 0 .33 0 .66 0 1-9.405.99-9.405.99-19 2 0-4.956 3.759-7.41 7-11 3.007-3.661 6.007-7.328 9-11 3.325-4.007 6.662-8.004 10-12-9.57-.33-19.14-.66-29-1 0-.33 0-.66 0-1z" fill="#674825"/>

  <!-- тёмные детали стен -->
  <path d="M255 215c10.23 0 20.46 0 31 0 0 .66 0 1.32 0 2 1.32.66 2.64 1.32 4 2 3.82 3.573 7.551 7.18 11.25 10.875 1.547 1.51 1.547 1.51 3.125 3.05 7.625 7.595 7.625 7.595 7.625 12.075-11 0-11 0-13-4-17.331-21.268-17.331-21.268-43-25 0 8.91 0 17.82 0 27-.33 0-.66 0-1 0 0-9.24 0-18.48 0-28z" fill="#6A4824"/>

  <!-- декоративная отделка -->
  <path d="M180 155c1.847 30.458 2.22 60.501 1 91-1.98 0-3.96 0-6 0 0-8.58 0-17.16 0-26 .33 0 .66 0 1 0 .02-1.898.04-3.796.06-5.752.078-7.018.165-14.036.258-21.055.038-3.042.073-6.084.104-9.126.046-4.364.104-8.727.164-13.09.032-2.63.063-5.259.096-7.968.425-8.25.425-8.25 3.318-8.25z" fill="#A67531"/>

  <!-- тёмно-зелёные тени на крыше (левое окно) -->
  <path d="M227 163c6.27 0 12.54 0 19 0 0 6.27 0 12.54 0 19-6.27 0-12.54 0-19 0 0-6.27 0-12.54 0-19z" fill="#374434"/>

  <!-- тёмно-зелёные тени на крыше (правое окно) -->
  <path d="M227 137c6.27 0 12.54 0 19 0 0 6.27 0 12.54 0 19-6.27 0-12.54 0-19 0 0-6.27 0-12.54 0-19z" fill="#33412F"/>

  <!-- серо-коричневые детали -->
  <path d="M132 185c19.79 14.842 19.79 14.842 17 26 6.27 0 12.54 0 19 0 0 .33 0 .66 0 1-11.88 0-23.76 0-36 0 0-8.91 0-17.82 0-27z" fill="#8A7456"/>

  <!-- деревянные ставни -->
  <path d="M126 187c0 21.78 0 43.56 0 66-5.445.495-5.445.495-11 1 .99-.495.99-.495 2-1 0-8.25 0-16.5 0-25 3 1 3 1 4 5 .049-2.075.098-4.15.148-6.289.075-2.779.151-5.557.227-8.336.046-2.042.046-2.042.094-4.125.778-27.25.778-27.25 4.53-27.25z" fill="#AB7B3B"/>

  <!-- деревянные детали -->
  <path d="M119 192c-.114 4.063-.242 8.125-.375 12.188-.07 2.262-.14 4.524-.211 6.855-.638 9.181-.638 9.181-3.414 12.957-.239 5.357-.424 10.703-.562 16.062-.044 1.522-.087 3.044-.132 4.612-.106 3.775-.207 7.55-.307 11.326-2.475.495-2.475.495-5 1-.33-19.47-.66-38.94-1-59 .66 0 1.32 0 2 0 0 1.65 0 3.3 0 5 .99 0 1.98 0 3 0 .33 4.95.66 9.9 1 15 .049-1.637.098-3.274.148-4.96.113-3.175.113-3.175.227-6.414.07-2.112.14-4.223.211-6.399.573-7.226.573-7.226 3.414-7.226z" fill="#90612D"/>

  <!-- очень тёмные зелёные тени (левое окно) -->
  <path d="M252 163c5.94 0 11.88 0 18 0 0 5.94 0 11.88 0 18-5.94 0-11.88 0-18 0 0-5.94 0-11.88 0-18z" fill="#2C3B28"/>

  <!-- очень тёмные зелёные тени (правое окно) -->
  <path d="M252 138c5.94 0 11.88 0 18 0 0 5.94 0 11.88 0 18-5.94 0-11.88 0-18 0 0-5.94 0-11.88 0-18z" fill="#2B3B27"/>

  <!-- светлые блики на фундаменте -->
  <path d="M287 216c7.92 0 15.84 0 24 0 0 7.92 0 15.84 0 24-5.577-4.78-10.757-9.623-15.938-14.812-1.514-1.512-3.029-3.024-4.59-4.582-3.472-3.606-3.472-3.606-3.472-4.606z" fill="#ECEBEA"/>

  <!-- тёмные тени под крышей -->
  <path d="M124 188c-.153 1.859-.307 3.718-.465 5.633-.719 10.07-.887 20.15-1.097 30.242-.043 1.94-.087 3.88-.131 5.879-.106 4.749-.208 9.497-.307 14.246-.33 0-.66 0-1 0-.289-2.454-.578-4.909-.875-7.438-.04-7.361-.04-7.361-3.125-8.562 0 8.91 0 17.82 0 27-.99 0-1.98 0-3 0-.054-5.292-.094-10.583-.125-15.875-.017-1.51-.034-3.019-.05-4.574-.051-11.324-.051-11.324 2.175-13.551 1.948-7.792 1.24-16.159 1.328-24.16 1.017-8.84 1.017-8.84 6.672-8.84z" fill="#684216"/>

  <!-- коричневые детали -->
  <path d="M376 190c8.792 3.517 5.046 17.521 5.062 26.313.009 2.292.017 4.585.026 6.947.003 2.22.006 4.44.01 6.728.005 2.037.01 4.074.016 6.173-.11 5.66-.528 11.21-1.114 16.839-1.32 0-2.64 0-4 0 0-20.79 0-41.58 0-63z" fill="#9C7238"/>

  <!-- тёмные тени -->
  <path d="M179 156c-.33.33-.66.66-1 1-.125 2.728-.178 5.46-.205 8.192-.03 2.642-.03 2.642-.06 5.338-.017 1.92-.034 3.84-.051 5.818-.021 1.952-.042 3.904-.063 5.915-.066 6.267-.125 12.533-.184 18.8-.043 4.235-.086 8.47-.13 12.705-.108 10.411-.21 20.822-.308 31.232-.33 0-.66 0-1 0-.086-1.81-.172-3.62-.26-5.485-.321-6.763-.644-13.527-.968-20.29-.14-2.918-.278-5.837-.416-8.755-.2-4.213-.401-8.425-.603-12.638-.181-3.794-.181-3.794-.365-7.665-.365-6.733-.843-13.447-1.389-20.167-.66 5.28-1.32 10.56-2 16-.33 0-.66 0-1 0-.405-10.533.572-34.714 10-25z" fill="#664217"/>

  <!-- деревянные детали -->
  <path d="M319 155c1.32.33 2.64.66 4 1 .06 2.206.12 4.411.183 6.684.085 2.918.17 5.836.254 8.754.04 1.45.079 2.901.12 4.396.21 7.108.59 14.107 1.443 21.166.279 16.023-.291 32.062-2 48-.66 0-1.32 0-2 0 .012-1.423.023-2.846.035-4.312.01-1.877.018-3.754.028-5.688.012-1.856.023-3.712.035-5.625.02-5.075.02-5.075-.6-8.86-.668-6.063-.59-12.032-.56-18.132.007-2.627.015-5.254.023-7.961.013-2.766.026-5.531.04-8.297.026-5.435.046-10.87.062-16.305.012-2.41.023-4.82.035-7.304.307-5.066.307-5.066-1.098-7.516z" fill="#9E6E2E"/>

  <!-- деревянные детали -->
  <path d="M242 215c3.3 0 6.6 0 10 0 .33 9.24.66 18.48 1 28-3.63 0-7.26 0-11 0 0-9.24 0-18.48 0-28z" fill="#8D6126"/>

  <!-- светлые блики -->
  <path d="M187 216c7.59 0 15.18 0 23 0-7.072 8.25-13.929 15.952-23 22 0-7.26 0-14.52 0-22z" fill="#EAE9E8"/>

  <!-- светлые блики -->
  <path d="M329 224c8.616 7.18 14.977 15.58 21 25-14.25-.875-14.25-.875-21-2 0-7.59 0-15.18 0-23z" fill="#E3E2E1"/>

  <!-- светлые блики -->
  <path d="M168 224c0 7.59 0 15.18 0 23-6.497.812-12.483 1.081-19 1 2.055-5.139 4.246-7.884 7.875-12 10.526-12 10.526-12 11.125-12z" fill="#EAE9E8"/>

  <!-- тёмные тени -->
  <path d="M185 151c.03 7.167.047 14.333.063 21.5.008 2.032.017 4.063.025 6.156.004 1.96.007 3.919.01 5.938.006 1.801.011 3.603.016 5.459-.1 4.398-.472 8.6-1.114 12.947-.33 0-.66 0-1 0-.33-3.63-.66-7.26-1-11-.33 0-.66 0-1 0-.45-6.269-.854-12.54-1.25-18.812-.129-1.788-.258-3.575-.39-5.416-.104-1.705-.207-3.41-.313-5.166-.105-1.576-.21-3.153-.318-4.777.3-4.252 1.422-6.829 6.27-6.829z" fill="#5D3C17"/>

  <!-- коричневые детали -->
  <path d="M372 187c11.385 4.554 4.514 53.395 4 66-1.32-.33-2.64-.66-4-1 .66 0 1.32 0 2 0-.06-1.791-.121-3.583-.184-5.428-.224-6.644-.447-13.288-.67-19.932-.097-2.876-.194-5.752-.291-8.628-.14-4.133-.279-8.266-.417-12.399-.126-3.731-.126-3.731-.254-7.537-.112-3.691-.184-7.383-.184-11.075z" fill="#614118"/>

  <!-- коричневые детали -->
  <path d="M329 204c12.793.4 25.37.847 38 3 0 .99 0 1.98 0 3-12.54 0-25.08 0-38 0 0-1.98 0-3.96 0-6z" fill="#815A28"/>

  <!-- тёмные тени -->
  <path d="M315 152c9.831 3.932 5.986 18.453 5.687 27.875-.035 1.508-.07 3.016-.107 4.57-.336 11.189-.336 11.189-2.58 14.555-5.32-5.32-2.06-28.485-2-36.375.184-5.556.184-5.556 1-11z" fill="#633F15"/>
</svg>