               <?xml version="1.0" encoding="utf-8"?><svg><path d="M264 96c0 0 2.2 1.325 6.664 4.016 2.321 1.41 4.641 2.822 6.961 4.234 1.23.748 2.46 1.496 3.727 2.267 3.55 2.16 7.099 4.321 10.648 6.483 1.677 1.021 3.354 2.042 5.082 3.094 7.785 4.748 15.546 9.534 23.293 14.344 8.452 5.24 16.957 10.382 25.492 15.485 7.331 4.396 14.627 8.848 21.926 13.297 6.835 4.164 13.677 8.317 20.52 12.469 31.702 19.239 31.702 19.239 30.687 24.312-1.888 5.048-3.96 10.01-6 15-4.463-1.116-7.452-2.92-11.375-5.312-1.286-.78-2.573-1.56-3.898-2.364-3.282-2.047-6.51-4.179-9.727-6.324 0 19.47 0 38.94 0 59 2.64.33 5.28.66 8 1 5.551 1.07 11.089 2.171 16.625 3.312 1.468.296 2.937.592 4.45.897 9.122 1.874 17.987 4.183 26.925 6.791 2.665.348 5.331.684 8 1 3.02.939 6.022 1.937 9 3 1.98.66 3.96 1.32 6 1.98-5.105 1.276-8.47.304-13.625-.75-9.769-1.938-19.535-3.717-29.375-5.25-1.485-.235-2.97-.47-4.5-.711-126.685-18.642-261.718-15.59-387.5 7.711 2.029-4.058 9.338-4.314 13.312-5.312 2.452-.619 4.904-1.238 7.43-1.876 2.395-.598 4.79-1.196 7.258-1.812 1.92-.495 3.841-.99 5.82-1.5 8.702-2.232 17.3-4.092 26.18-5.5 2.97-.99 2.97-.99 6-2 3.63-.33 7.26-.66 11-1 0-19.14 0-38.28 0-58-7.425 4.455-7.425 4.455-15 9-2.99 1.684-5.985 3.36-9 5-1.227-2.909-2.431-5.828-3.625-8.75-.673-1.624-1.346-3.248-2.039-4.922-1.336-4.328-1.336-4.328.664-8.328 2.851-1.895 5.784-3.667 8.75-5.375 7.517-4.401 14.921-8.917 22.25-13.625 8.759-5.608 17.612-11.022 26.547-16.344 5.855-3.492 11.651-7.077 17.453-10.656 3.604-2.188 7.208-4.376 10.812-6.562 8.02-4.875 15.994-9.814 23.938-14.812 10.877-6.826 21.901-13.362 32.977-19.856 6.82-4.098 13.408-8.452 19.918-13.024 7.856-4.088 14.692 2.187 22.047 6.254z" fill="#3F2C1B"/>
                        <path d="M261.312 48.188c7.54 4.809 15.1 9.58 22.688 14.312 11.879 7.418 23.721 14.893 35.555 22.383 8.799 5.564 17.614 11.102 26.445 16.617 11.915 7.44 23.795 14.934 35.66 22.453 10.003 6.331 20.05 12.588 30.122 18.808 6.656 4.13 13.274 8.318 19.89 12.512 3.842 2.42 7.703 4.801 11.579 7.164 4.39 2.72 8.611 5.482 12.75 8.562-12.824 19.235-12.824 19.235-19 18-3.106-1.715-6.163-3.521-9.188-5.375-1.798-1.097-3.596-2.194-5.449-3.324-2.655-1.634-2.655-1.634-5.363-3.301-2.834-1.73-5.667-3.459-8.5-5.188-1.45-.888-2.9-1.776-3.395-2.891-6.423-3.927-12.857-7.838-19.293-11.746-1.221-.742-2.443-1.484-3.701-2.248-6.006-3.645-12.017-7.277-18.049-10.877-5.788-3.461-11.521-7.005-17.25-10.562-6.841-4.248-13.709-8.439-20.625-12.563-9.445-5.643-18.767-11.47-28.086-17.32-7.861-4.902-15.786-9.696-23.719-14.48-6.433-3.973-12.683-8.186-18.886-12.508-6.813-3.54-11.425.13-17.121 3.996-8.003 5.319-16.153 10.305-24.407 15.223-12.857 7.672-25.575 15.57-38.3 23.457-10.543 6.525-21.107 13.014-31.668 19.508-4.334 2.667-8.667 5.334-13 8-2.148 1.322-4.296 2.643-6.508 4.005-4.309 2.652-8.616 5.305-12.922 7.96-12.861 7.927-24.949 15.807-37.873 23.63-6.003 3.617-6.003 3.617-11.898 7.406-7.803-2.05-12.321-10.862-17-17.094 0-5.156 4.757-6.094 8.937-8.5 6.527-3.819 12.986-7.671 19.313-11.812 8.793-5.747 17.703-11.296 26.617-16.852 7.658-4.79 15.276-9.64 22.891-14.496 8.065-5.138 16.154-10.238 24.242-15.34 3.167-2 6.334-4 9.5-6 1.574-.994 3.148-1.988 4.77-3.012 3.102-1.96 6.204-3.921 9.305-5.883 8.729-5.521 17.475-11.013 26.238-16.48 16.109-10.06 32.131-20.25 48.047-30.613 7.366-4.717 11.634-.205 18.453 4.176z" fill="#32452C"/></svg>